<svg width="451" height="455" version="1.1" xmlns="http://www.w3.org/2000/svg" desc="Created with imagetracer.js version 1.2.6" ><path fill="rgb(0,0,0)" stroke="rgb(0,0,0)" stroke-width="1" opacity="0" d="M 0 0 L 451 0 L 451 455 L 0 455 L 0 0 Z M 186 40 L 186 172 L 44 172 L 44 255 L 186 255 L 186 410 L 269 410 L 269 255 L 414 255 L 414 172 L 269 172 L 269 40 L 186 40 Z " /><path fill="rgb(247,111,145)" stroke="rgb(247,111,145)" stroke-width="1" opacity="1" d="M 186 40 L 269 40 L 269 172 L 414 172 L 414 255 L 269 255 L 269 410 L 186 410 L 186 255 L 44 255 L 44 172 L 186 172 L 186 40 Z " /></svg>